# Blender v2.79 (sub 0) OBJ File: ''
# www.blender.org
mtllib ring.mtl
o Torus.002
v 3.811955 3.543271 0.993841
v 3.717828 3.738729 0.993841
v 3.506325 3.787003 0.993841
v 3.336713 3.651742 0.993841
v 3.336713 3.434800 0.993841
v 3.506325 3.299539 0.993841
v 3.717828 3.347813 0.993841
v 3.753769 3.543271 0.328769
v 3.661071 3.738729 0.345114
v 3.452782 3.787003 0.381841
v 3.285747 3.651742 0.411294
v 3.285747 3.434800 0.411294
v 3.452782 3.299539 0.381841
v 3.661071 3.347813 0.345114
v 3.580978 3.543271 -0.316096
v 3.492527 3.738729 -0.283902
v 3.293780 3.787003 -0.211564
v 3.134397 3.651742 -0.153553
v 3.134397 3.434800 -0.153553
v 3.293780 3.299539 -0.211564
v 3.492527 3.347813 -0.283902
v 3.298832 3.543271 -0.921159
v 3.217315 3.738729 -0.874095
v 3.034149 3.787003 -0.768344
v 2.887261 3.651742 -0.683538
v 2.887261 3.434800 -0.683538
v 3.034149 3.299539 -0.768344
v 3.217315 3.347813 -0.874095
v 2.915905 3.543271 -1.468036
v 2.843800 3.738729 -1.407531
v 2.681779 3.787003 -1.271580
v 2.551849 3.651742 -1.162556
v 2.551849 3.434800 -1.162556
v 2.681779 3.299539 -1.271580
v 2.843800 3.347813 -1.407531
v 2.443832 3.543271 -1.940109
v 2.383328 3.738729 -1.868003
v 2.247377 3.787003 -1.705983
v 2.138352 3.651742 -1.576053
v 2.138352 3.434800 -1.576053
v 2.247377 3.299539 -1.705983
v 2.383328 3.347813 -1.868003
v 1.896955 3.543271 -2.323036
v 1.849892 3.738729 -2.241519
v 1.744140 3.787003 -2.058353
v 1.659334 3.651742 -1.911464
v 1.659334 3.434800 -1.911464
v 1.744140 3.299539 -2.058353
v 1.849892 3.347813 -2.241519
v 1.291893 3.543271 -2.605181
v 1.259699 3.738729 -2.516730
v 1.187361 3.787003 -2.317983
v 1.129350 3.651742 -2.158600
v 1.129350 3.434800 -2.158600
v 1.187361 3.299539 -2.317983
v 1.259699 3.347813 -2.516730
v 0.647028 3.543271 -2.777972
v 0.630683 3.738729 -2.685275
v 0.593956 3.787003 -2.476985
v 0.564503 3.651742 -2.309950
v 0.564503 3.434800 -2.309950
v 0.593956 3.299539 -2.476985
v 0.630683 3.347813 -2.685275
v -0.018044 3.543271 -2.836159
v -0.018044 3.738729 -2.742031
v -0.018044 3.787003 -2.530529
v -0.018044 3.651742 -2.360917
v -0.018044 3.434800 -2.360917
v -0.018044 3.299539 -2.530529
v -0.018044 3.347813 -2.742031
v -0.683117 3.543271 -2.777973
v -0.666771 3.738729 -2.685275
v -0.630044 3.787003 -2.476986
v -0.600592 3.651742 -2.309950
v -0.600592 3.434800 -2.309950
v -0.630044 3.299539 -2.476986
v -0.666771 3.347813 -2.685275
v -1.327981 3.543271 -2.605182
v -1.295788 3.738729 -2.516731
v -1.223449 3.787003 -2.317983
v -1.165439 3.651742 -2.158600
v -1.165439 3.434800 -2.158600
v -1.223449 3.299539 -2.317983
v -1.295788 3.347813 -2.516731
v -1.933044 3.543271 -2.323036
v -1.885980 3.738729 -2.241519
v -1.780229 3.787003 -2.058353
v -1.695423 3.651742 -1.911465
v -1.695423 3.434800 -1.911465
v -1.780229 3.299539 -2.058353
v -1.885980 3.347813 -2.241519
v -2.479920 3.543271 -1.940109
v -2.419416 3.738729 -1.868003
v -2.283465 3.787003 -1.705983
v -2.174441 3.651742 -1.576053
v -2.174441 3.434800 -1.576053
v -2.283465 3.299539 -1.705983
v -2.419416 3.347813 -1.868003
v -2.951994 3.543271 -1.468036
v -2.879888 3.738729 -1.407532
v -2.717868 3.787003 -1.271581
v -2.587937 3.651742 -1.162556
v -2.587937 3.434800 -1.162556
v -2.717868 3.299539 -1.271581
v -2.879888 3.347813 -1.407532
v -3.334921 3.543271 -0.921160
v -3.253404 3.738729 -0.874096
v -3.070238 3.787003 -0.768345
v -2.923349 3.651742 -0.683539
v -2.923349 3.434800 -0.683539
v -3.070238 3.299539 -0.768345
v -3.253404 3.347813 -0.874096
v -3.617067 3.543271 -0.316097
v -3.528616 3.738729 -0.283904
v -3.329868 3.787003 -0.211565
v -3.170485 3.651742 -0.153555
v -3.170485 3.434800 -0.153555
v -3.329868 3.299539 -0.211565
v -3.528616 3.347813 -0.283904
v -3.789858 3.543271 0.328767
v -3.697160 3.738729 0.345113
v -3.488871 3.787003 0.381840
v -3.321836 3.651742 0.411292
v -3.321836 3.434800 0.411292
v -3.488871 3.299539 0.381840
v -3.697160 3.347813 0.345113
v -3.848044 3.543271 0.993841
v -3.753917 3.738729 0.993841
v -3.542414 3.787003 0.993841
v -3.372802 3.651742 0.993841
v -3.372802 3.434800 0.993841
v -3.542414 3.299539 0.993841
v -3.753917 3.347813 0.993841
v -3.789858 3.543271 1.658913
v -3.697160 3.738729 1.642568
v -3.488871 3.787003 1.605841
v -3.321836 3.651742 1.576388
v -3.321836 3.434800 1.576388
v -3.488871 3.299539 1.605841
v -3.697160 3.347813 1.642568
v -3.617067 3.543271 2.303778
v -3.528616 3.738729 2.271584
v -3.329869 3.787003 2.199246
v -3.170486 3.651742 2.141235
v -3.170486 3.434800 2.141235
v -3.329869 3.299539 2.199246
v -3.528616 3.347813 2.271584
v -3.334922 3.543271 2.908840
v -3.253405 3.738729 2.861777
v -3.070239 3.787003 2.756025
v -2.923350 3.651742 2.671219
v -2.923350 3.434800 2.671219
v -3.070239 3.299539 2.756025
v -3.253405 3.347813 2.861777
v -2.951995 3.543271 3.455717
v -2.879889 3.738729 3.395213
v -2.717869 3.787003 3.259262
v -2.587939 3.651742 3.150237
v -2.587939 3.434800 3.150237
v -2.717869 3.299539 3.259262
v -2.879889 3.347813 3.395213
v -2.479920 3.543271 3.927792
v -2.419416 3.738729 3.855686
v -2.283465 3.787003 3.693666
v -2.174441 3.651742 3.563735
v -2.174441 3.434800 3.563735
v -2.283465 3.299539 3.693666
v -2.419416 3.347813 3.855686
v -1.933044 3.543271 4.310719
v -1.885980 3.738729 4.229202
v -1.780229 3.787003 4.046035
v -1.695423 3.651742 3.899147
v -1.695423 3.434800 3.899147
v -1.780229 3.299539 4.046035
v -1.885980 3.347813 4.229202
v -1.327981 3.543271 4.592864
v -1.295788 3.738729 4.504413
v -1.223449 3.787003 4.305665
v -1.165439 3.651742 4.146282
v -1.165439 3.434800 4.146282
v -1.223449 3.299539 4.305665
v -1.295788 3.347813 4.504413
v -0.683117 3.543271 4.765655
v -0.666771 3.738729 4.672957
v -0.630044 3.787003 4.464668
v -0.600592 3.651742 4.297633
v -0.600592 3.434800 4.297633
v -0.630044 3.299539 4.464668
v -0.666771 3.347813 4.672957
v -0.018044 3.543271 4.823841
v -0.018044 3.738729 4.729713
v -0.018044 3.787003 4.518211
v -0.018044 3.651742 4.348599
v -0.018044 3.434800 4.348599
v -0.018044 3.299539 4.518211
v -0.018044 3.347813 4.729713
v 0.647028 3.543271 4.765655
v 0.630683 3.738729 4.672957
v 0.593956 3.787003 4.464668
v 0.564503 3.651742 4.297632
v 0.564503 3.434800 4.297632
v 0.593956 3.299539 4.464668
v 0.630683 3.347813 4.672957
v 1.291893 3.543271 4.592864
v 1.259699 3.738729 4.504413
v 1.187361 3.787003 4.305665
v 1.129350 3.651742 4.146282
v 1.129350 3.434800 4.146282
v 1.187361 3.299539 4.305665
v 1.259699 3.347813 4.504413
v 1.896955 3.543271 4.310719
v 1.849892 3.738729 4.229201
v 1.744140 3.787003 4.046035
v 1.659334 3.651742 3.899147
v 1.659334 3.434800 3.899147
v 1.744140 3.299539 4.046035
v 1.849892 3.347813 4.229201
v 2.443832 3.543271 3.927792
v 2.383328 3.738729 3.855685
v 2.247377 3.787003 3.693665
v 2.138352 3.651742 3.563735
v 2.138352 3.434800 3.563735
v 2.247377 3.299539 3.693665
v 2.383328 3.347813 3.855685
v 2.915905 3.543271 3.455718
v 2.843800 3.738729 3.395214
v 2.681779 3.787003 3.259263
v 2.551849 3.651742 3.150238
v 2.551849 3.434800 3.150238
v 2.681779 3.299539 3.259263
v 2.843800 3.347813 3.395214
v 3.298832 3.543271 2.908842
v 3.217315 3.738729 2.861778
v 3.034149 3.787003 2.756027
v 2.887261 3.651742 2.671220
v 2.887261 3.434800 2.671220
v 3.034149 3.299539 2.756027
v 3.217315 3.347813 2.861778
v 3.580978 3.543271 2.303779
v 3.492527 3.738729 2.271585
v 3.293780 3.787003 2.199247
v 3.134397 3.651742 2.141236
v 3.134397 3.434800 2.141236
v 3.293780 3.299539 2.199247
v 3.492527 3.347813 2.271585
v 3.753769 3.543271 1.658914
v 3.661071 3.738729 1.642569
v 3.452782 3.787003 1.605842
v 3.285747 3.651742 1.576389
v 3.285747 3.434800 1.576389
v 3.452782 3.299539 1.605842
v 3.661071 3.347813 1.642569
vn 0.8982 0.4325 -0.0786
vn 0.2225 0.9747 -0.0195
vn -0.6226 0.7807 0.0545
vn -0.9962 0.0000 0.0872
vn -0.6226 -0.7807 0.0545
vn 0.2225 -0.9747 -0.0195
vn 0.8982 -0.4325 -0.0786
vn 0.8709 0.4325 -0.2334
vn 0.2157 0.9747 -0.0578
vn -0.6036 0.7807 0.1617
vn -0.9659 0.0000 0.2588
vn -0.6036 -0.7807 0.1617
vn 0.2157 -0.9747 -0.0578
vn 0.8709 -0.4325 -0.2334
vn 0.8171 0.4325 -0.3810
vn 0.2024 0.9747 -0.0944
vn -0.5664 0.7807 0.2641
vn -0.9063 0.0000 0.4226
vn -0.5664 -0.7807 0.2641
vn 0.2024 -0.9747 -0.0944
vn 0.8171 -0.4325 -0.3810
vn 0.7386 0.4325 -0.5171
vn 0.1829 0.9747 -0.1281
vn -0.5119 0.7807 0.3585
vn -0.8192 0.0000 0.5736
vn -0.5119 -0.7807 0.3585
vn 0.1829 -0.9747 -0.1281
vn 0.7386 -0.4325 -0.5171
vn 0.6375 0.4325 -0.6375
vn 0.1579 0.9747 -0.1579
vn -0.4419 0.7807 0.4419
vn -0.7071 0.0000 0.7071
vn -0.4419 -0.7807 0.4419
vn 0.1579 -0.9747 -0.1579
vn 0.6375 -0.4325 -0.6375
vn 0.5171 0.4325 -0.7386
vn 0.1281 0.9747 -0.1829
vn -0.3585 0.7807 0.5119
vn -0.5736 0.0000 0.8192
vn -0.3585 -0.7807 0.5119
vn 0.1281 -0.9747 -0.1829
vn 0.5171 -0.4325 -0.7386
vn 0.3810 0.4325 -0.8171
vn 0.0944 0.9747 -0.2024
vn -0.2641 0.7807 0.5664
vn -0.4226 0.0000 0.9063
vn -0.2641 -0.7807 0.5664
vn 0.0944 -0.9747 -0.2024
vn 0.3810 -0.4325 -0.8171
vn 0.2334 0.4325 -0.8709
vn 0.0578 0.9747 -0.2157
vn -0.1617 0.7807 0.6036
vn -0.2588 0.0000 0.9659
vn -0.1617 -0.7807 0.6036
vn 0.0578 -0.9747 -0.2157
vn 0.2334 -0.4325 -0.8709
vn 0.0786 0.4325 -0.8982
vn 0.0195 0.9747 -0.2225
vn -0.0545 0.7807 0.6226
vn -0.0872 0.0000 0.9962
vn -0.0545 -0.7807 0.6226
vn 0.0195 -0.9747 -0.2225
vn 0.0786 -0.4325 -0.8982
vn -0.0786 0.4325 -0.8982
vn -0.0195 0.9747 -0.2225
vn 0.0545 0.7807 0.6226
vn 0.0872 0.0000 0.9962
vn 0.0545 -0.7807 0.6226
vn -0.0195 -0.9747 -0.2225
vn -0.0786 -0.4325 -0.8982
vn -0.2334 0.4325 -0.8709
vn -0.0578 0.9747 -0.2157
vn 0.1617 0.7807 0.6036
vn 0.2588 0.0000 0.9659
vn 0.1617 -0.7807 0.6036
vn -0.0578 -0.9747 -0.2157
vn -0.2334 -0.4325 -0.8709
vn -0.3810 0.4325 -0.8171
vn -0.0944 0.9747 -0.2024
vn 0.2641 0.7807 0.5664
vn 0.4226 0.0000 0.9063
vn 0.2641 -0.7807 0.5664
vn -0.0944 -0.9747 -0.2024
vn -0.3810 -0.4325 -0.8171
vn -0.5171 0.4325 -0.7386
vn -0.1281 0.9747 -0.1829
vn 0.3585 0.7807 0.5119
vn 0.5736 0.0000 0.8192
vn 0.3585 -0.7807 0.5119
vn -0.1281 -0.9747 -0.1829
vn -0.5171 -0.4325 -0.7386
vn -0.6375 0.4325 -0.6375
vn -0.1579 0.9747 -0.1579
vn 0.4419 0.7807 0.4419
vn 0.7071 0.0000 0.7071
vn 0.4419 -0.7807 0.4419
vn -0.1579 -0.9747 -0.1579
vn -0.6375 -0.4325 -0.6375
vn -0.7386 0.4325 -0.5171
vn -0.1829 0.9747 -0.1281
vn 0.5119 0.7807 0.3585
vn 0.8192 0.0000 0.5736
vn 0.5119 -0.7807 0.3585
vn -0.1829 -0.9747 -0.1281
vn -0.7386 -0.4325 -0.5171
vn -0.8171 0.4325 -0.3810
vn -0.2024 0.9747 -0.0944
vn 0.5664 0.7807 0.2641
vn 0.9063 0.0000 0.4226
vn 0.5664 -0.7807 0.2641
vn -0.2024 -0.9747 -0.0944
vn -0.8171 -0.4325 -0.3810
vn -0.8709 0.4325 -0.2334
vn -0.2157 0.9747 -0.0578
vn 0.6036 0.7807 0.1617
vn 0.9659 0.0000 0.2588
vn 0.6036 -0.7807 0.1617
vn -0.2157 -0.9747 -0.0578
vn -0.8709 -0.4325 -0.2334
vn -0.8982 0.4325 -0.0786
vn -0.2225 0.9747 -0.0195
vn 0.6226 0.7807 0.0545
vn 0.9962 0.0000 0.0872
vn 0.6226 -0.7807 0.0545
vn -0.2225 -0.9747 -0.0195
vn -0.8982 -0.4325 -0.0786
vn -0.8982 0.4325 0.0786
vn -0.2225 0.9747 0.0195
vn 0.6226 0.7807 -0.0545
vn 0.9962 0.0000 -0.0872
vn 0.6226 -0.7807 -0.0545
vn -0.2225 -0.9747 0.0195
vn -0.8982 -0.4325 0.0786
vn -0.8709 0.4325 0.2334
vn -0.2157 0.9747 0.0578
vn 0.6036 0.7807 -0.1617
vn 0.9659 0.0000 -0.2588
vn 0.6036 -0.7807 -0.1617
vn -0.2157 -0.9747 0.0578
vn -0.8709 -0.4325 0.2334
vn -0.8171 0.4325 0.3810
vn -0.2024 0.9747 0.0944
vn 0.5664 0.7807 -0.2641
vn 0.9063 0.0000 -0.4226
vn 0.5664 -0.7807 -0.2641
vn -0.2024 -0.9747 0.0944
vn -0.8171 -0.4325 0.3810
vn -0.7386 0.4325 0.5171
vn -0.1829 0.9747 0.1281
vn 0.5119 0.7807 -0.3585
vn 0.8192 0.0000 -0.5736
vn 0.5119 -0.7807 -0.3585
vn -0.1829 -0.9747 0.1281
vn -0.7386 -0.4325 0.5171
vn -0.6375 0.4325 0.6375
vn -0.1579 0.9747 0.1579
vn 0.4419 0.7807 -0.4419
vn 0.7071 0.0000 -0.7071
vn 0.4419 -0.7807 -0.4419
vn -0.1579 -0.9747 0.1579
vn -0.6375 -0.4325 0.6375
vn -0.5171 0.4325 0.7386
vn -0.1281 0.9747 0.1829
vn 0.3585 0.7807 -0.5119
vn 0.5736 0.0000 -0.8192
vn 0.3585 -0.7807 -0.5119
vn -0.1281 -0.9747 0.1829
vn -0.5171 -0.4325 0.7386
vn -0.3810 0.4325 0.8171
vn -0.0944 0.9747 0.2024
vn 0.2641 0.7807 -0.5664
vn 0.4226 0.0000 -0.9063
vn 0.2641 -0.7807 -0.5664
vn -0.0944 -0.9747 0.2024
vn -0.3810 -0.4325 0.8171
vn -0.2334 0.4325 0.8709
vn -0.0578 0.9747 0.2157
vn 0.1617 0.7807 -0.6036
vn 0.2588 0.0000 -0.9659
vn 0.1617 -0.7807 -0.6036
vn -0.0578 -0.9747 0.2157
vn -0.2334 -0.4325 0.8709
vn -0.0786 0.4325 0.8982
vn -0.0195 0.9747 0.2225
vn 0.0545 0.7807 -0.6226
vn 0.0872 0.0000 -0.9962
vn 0.0545 -0.7807 -0.6226
vn -0.0195 -0.9747 0.2225
vn -0.0786 -0.4325 0.8982
vn 0.0786 0.4325 0.8982
vn 0.0195 0.9747 0.2225
vn -0.0545 0.7807 -0.6226
vn -0.0872 0.0000 -0.9962
vn -0.0545 -0.7807 -0.6226
vn 0.0195 -0.9747 0.2225
vn 0.0786 -0.4325 0.8982
vn 0.2334 0.4325 0.8709
vn 0.0578 0.9747 0.2157
vn -0.1617 0.7807 -0.6036
vn -0.2588 0.0000 -0.9659
vn -0.1617 -0.7807 -0.6036
vn 0.0578 -0.9747 0.2157
vn 0.2334 -0.4325 0.8709
vn 0.3810 0.4325 0.8171
vn 0.0944 0.9747 0.2024
vn -0.2641 0.7807 -0.5664
vn -0.4226 0.0000 -0.9063
vn -0.2641 -0.7807 -0.5664
vn 0.0944 -0.9747 0.2024
vn 0.3810 -0.4325 0.8171
vn 0.5171 0.4325 0.7386
vn 0.1281 0.9747 0.1829
vn -0.3585 0.7807 -0.5119
vn -0.5736 0.0000 -0.8192
vn -0.3585 -0.7807 -0.5119
vn 0.1281 -0.9747 0.1829
vn 0.5171 -0.4325 0.7386
vn 0.6375 0.4325 0.6375
vn 0.1579 0.9747 0.1579
vn -0.4419 0.7807 -0.4419
vn -0.7071 0.0000 -0.7071
vn -0.4419 -0.7807 -0.4419
vn 0.1579 -0.9747 0.1579
vn 0.6375 -0.4325 0.6375
vn 0.7386 0.4325 0.5171
vn 0.1829 0.9747 0.1281
vn -0.5119 0.7807 -0.3585
vn -0.8192 0.0000 -0.5736
vn -0.5119 -0.7807 -0.3585
vn 0.1829 -0.9747 0.1281
vn 0.7386 -0.4325 0.5171
vn 0.8171 0.4325 0.3810
vn 0.2024 0.9747 0.0944
vn -0.5664 0.7807 -0.2641
vn -0.9063 0.0000 -0.4226
vn -0.5664 -0.7807 -0.2641
vn 0.2024 -0.9747 0.0944
vn 0.8171 -0.4325 0.3810
vn 0.8709 0.4325 0.2334
vn 0.2157 0.9747 0.0578
vn -0.6036 0.7807 -0.1617
vn -0.9659 0.0000 -0.2588
vn -0.6036 -0.7807 -0.1617
vn 0.2157 -0.9747 0.0578
vn 0.8709 -0.4325 0.2334
vn 0.8982 0.4325 0.0786
vn 0.2225 0.9747 0.0195
vn -0.6226 0.7807 -0.0545
vn -0.9962 0.0000 -0.0872
vn -0.6226 -0.7807 -0.0545
vn 0.2225 -0.9747 0.0195
vn 0.8982 -0.4325 0.0786
usemtl None
s off
f 1//1 8//1 9//1 2//1
f 2//2 9//2 10//2 3//2
f 3//3 10//3 11//3 4//3
f 4//4 11//4 12//4 5//4
f 5//5 12//5 13//5 6//5
f 6//6 13//6 14//6 7//6
f 7//7 14//7 8//7 1//7
f 8//8 15//8 16//8 9//8
f 9//9 16//9 17//9 10//9
f 10//10 17//10 18//10 11//10
f 11//11 18//11 19//11 12//11
f 12//12 19//12 20//12 13//12
f 13//13 20//13 21//13 14//13
f 14//14 21//14 15//14 8//14
f 15//15 22//15 23//15 16//15
f 16//16 23//16 24//16 17//16
f 17//17 24//17 25//17 18//17
f 18//18 25//18 26//18 19//18
f 19//19 26//19 27//19 20//19
f 20//20 27//20 28//20 21//20
f 21//21 28//21 22//21 15//21
f 22//22 29//22 30//22 23//22
f 23//23 30//23 31//23 24//23
f 24//24 31//24 32//24 25//24
f 25//25 32//25 33//25 26//25
f 26//26 33//26 34//26 27//26
f 27//27 34//27 35//27 28//27
f 28//28 35//28 29//28 22//28
f 29//29 36//29 37//29 30//29
f 30//30 37//30 38//30 31//30
f 31//31 38//31 39//31 32//31
f 32//32 39//32 40//32 33//32
f 33//33 40//33 41//33 34//33
f 34//34 41//34 42//34 35//34
f 35//35 42//35 36//35 29//35
f 36//36 43//36 44//36 37//36
f 37//37 44//37 45//37 38//37
f 38//38 45//38 46//38 39//38
f 39//39 46//39 47//39 40//39
f 40//40 47//40 48//40 41//40
f 41//41 48//41 49//41 42//41
f 42//42 49//42 43//42 36//42
f 43//43 50//43 51//43 44//43
f 44//44 51//44 52//44 45//44
f 45//45 52//45 53//45 46//45
f 46//46 53//46 54//46 47//46
f 47//47 54//47 55//47 48//47
f 48//48 55//48 56//48 49//48
f 49//49 56//49 50//49 43//49
f 50//50 57//50 58//50 51//50
f 51//51 58//51 59//51 52//51
f 52//52 59//52 60//52 53//52
f 53//53 60//53 61//53 54//53
f 54//54 61//54 62//54 55//54
f 55//55 62//55 63//55 56//55
f 56//56 63//56 57//56 50//56
f 57//57 64//57 65//57 58//57
f 58//58 65//58 66//58 59//58
f 59//59 66//59 67//59 60//59
f 60//60 67//60 68//60 61//60
f 61//61 68//61 69//61 62//61
f 62//62 69//62 70//62 63//62
f 63//63 70//63 64//63 57//63
f 64//64 71//64 72//64 65//64
f 65//65 72//65 73//65 66//65
f 66//66 73//66 74//66 67//66
f 67//67 74//67 75//67 68//67
f 68//68 75//68 76//68 69//68
f 69//69 76//69 77//69 70//69
f 70//70 77//70 71//70 64//70
f 71//71 78//71 79//71 72//71
f 72//72 79//72 80//72 73//72
f 73//73 80//73 81//73 74//73
f 74//74 81//74 82//74 75//74
f 75//75 82//75 83//75 76//75
f 76//76 83//76 84//76 77//76
f 77//77 84//77 78//77 71//77
f 78//78 85//78 86//78 79//78
f 79//79 86//79 87//79 80//79
f 80//80 87//80 88//80 81//80
f 81//81 88//81 89//81 82//81
f 82//82 89//82 90//82 83//82
f 83//83 90//83 91//83 84//83
f 84//84 91//84 85//84 78//84
f 85//85 92//85 93//85 86//85
f 86//86 93//86 94//86 87//86
f 87//87 94//87 95//87 88//87
f 88//88 95//88 96//88 89//88
f 89//89 96//89 97//89 90//89
f 90//90 97//90 98//90 91//90
f 91//91 98//91 92//91 85//91
f 92//92 99//92 100//92 93//92
f 93//93 100//93 101//93 94//93
f 94//94 101//94 102//94 95//94
f 95//95 102//95 103//95 96//95
f 96//96 103//96 104//96 97//96
f 97//97 104//97 105//97 98//97
f 98//98 105//98 99//98 92//98
f 99//99 106//99 107//99 100//99
f 100//100 107//100 108//100 101//100
f 101//101 108//101 109//101 102//101
f 102//102 109//102 110//102 103//102
f 103//103 110//103 111//103 104//103
f 104//104 111//104 112//104 105//104
f 105//105 112//105 106//105 99//105
f 106//106 113//106 114//106 107//106
f 107//107 114//107 115//107 108//107
f 108//108 115//108 116//108 109//108
f 109//109 116//109 117//109 110//109
f 110//110 117//110 118//110 111//110
f 111//111 118//111 119//111 112//111
f 112//112 119//112 113//112 106//112
f 113//113 120//113 121//113 114//113
f 114//114 121//114 122//114 115//114
f 115//115 122//115 123//115 116//115
f 116//116 123//116 124//116 117//116
f 117//117 124//117 125//117 118//117
f 118//118 125//118 126//118 119//118
f 119//119 126//119 120//119 113//119
f 120//120 127//120 128//120 121//120
f 121//121 128//121 129//121 122//121
f 122//122 129//122 130//122 123//122
f 123//123 130//123 131//123 124//123
f 124//124 131//124 132//124 125//124
f 125//125 132//125 133//125 126//125
f 126//126 133//126 127//126 120//126
f 127//127 134//127 135//127 128//127
f 128//128 135//128 136//128 129//128
f 129//129 136//129 137//129 130//129
f 130//130 137//130 138//130 131//130
f 131//131 138//131 139//131 132//131
f 132//132 139//132 140//132 133//132
f 133//133 140//133 134//133 127//133
f 134//134 141//134 142//134 135//134
f 135//135 142//135 143//135 136//135
f 136//136 143//136 144//136 137//136
f 137//137 144//137 145//137 138//137
f 138//138 145//138 146//138 139//138
f 139//139 146//139 147//139 140//139
f 140//140 147//140 141//140 134//140
f 141//141 148//141 149//141 142//141
f 142//142 149//142 150//142 143//142
f 143//143 150//143 151//143 144//143
f 144//144 151//144 152//144 145//144
f 145//145 152//145 153//145 146//145
f 146//146 153//146 154//146 147//146
f 147//147 154//147 148//147 141//147
f 148//148 155//148 156//148 149//148
f 149//149 156//149 157//149 150//149
f 150//150 157//150 158//150 151//150
f 151//151 158//151 159//151 152//151
f 152//152 159//152 160//152 153//152
f 153//153 160//153 161//153 154//153
f 154//154 161//154 155//154 148//154
f 155//155 162//155 163//155 156//155
f 156//156 163//156 164//156 157//156
f 157//157 164//157 165//157 158//157
f 158//158 165//158 166//158 159//158
f 159//159 166//159 167//159 160//159
f 160//160 167//160 168//160 161//160
f 161//161 168//161 162//161 155//161
f 162//162 169//162 170//162 163//162
f 163//163 170//163 171//163 164//163
f 164//164 171//164 172//164 165//164
f 165//165 172//165 173//165 166//165
f 166//166 173//166 174//166 167//166
f 167//167 174//167 175//167 168//167
f 168//168 175//168 169//168 162//168
f 169//169 176//169 177//169 170//169
f 170//170 177//170 178//170 171//170
f 171//171 178//171 179//171 172//171
f 172//172 179//172 180//172 173//172
f 173//173 180//173 181//173 174//173
f 174//174 181//174 182//174 175//174
f 175//175 182//175 176//175 169//175
f 176//176 183//176 184//176 177//176
f 177//177 184//177 185//177 178//177
f 178//178 185//178 186//178 179//178
f 179//179 186//179 187//179 180//179
f 180//180 187//180 188//180 181//180
f 181//181 188//181 189//181 182//181
f 182//182 189//182 183//182 176//182
f 183//183 190//183 191//183 184//183
f 184//184 191//184 192//184 185//184
f 185//185 192//185 193//185 186//185
f 186//186 193//186 194//186 187//186
f 187//187 194//187 195//187 188//187
f 188//188 195//188 196//188 189//188
f 189//189 196//189 190//189 183//189
f 190//190 197//190 198//190 191//190
f 191//191 198//191 199//191 192//191
f 192//192 199//192 200//192 193//192
f 193//193 200//193 201//193 194//193
f 194//194 201//194 202//194 195//194
f 195//195 202//195 203//195 196//195
f 196//196 203//196 197//196 190//196
f 197//197 204//197 205//197 198//197
f 198//198 205//198 206//198 199//198
f 199//199 206//199 207//199 200//199
f 200//200 207//200 208//200 201//200
f 201//201 208//201 209//201 202//201
f 202//202 209//202 210//202 203//202
f 203//203 210//203 204//203 197//203
f 204//204 211//204 212//204 205//204
f 205//205 212//205 213//205 206//205
f 206//206 213//206 214//206 207//206
f 207//207 214//207 215//207 208//207
f 208//208 215//208 216//208 209//208
f 209//209 216//209 217//209 210//209
f 210//210 217//210 211//210 204//210
f 211//211 218//211 219//211 212//211
f 212//212 219//212 220//212 213//212
f 213//213 220//213 221//213 214//213
f 214//214 221//214 222//214 215//214
f 215//215 222//215 223//215 216//215
f 216//216 223//216 224//216 217//216
f 217//217 224//217 218//217 211//217
f 218//218 225//218 226//218 219//218
f 219//219 226//219 227//219 220//219
f 220//220 227//220 228//220 221//220
f 221//221 228//221 229//221 222//221
f 222//222 229//222 230//222 223//222
f 223//223 230//223 231//223 224//223
f 224//224 231//224 225//224 218//224
f 225//225 232//225 233//225 226//225
f 226//226 233//226 234//226 227//226
f 227//227 234//227 235//227 228//227
f 228//228 235//228 236//228 229//228
f 229//229 236//229 237//229 230//229
f 230//230 237//230 238//230 231//230
f 231//231 238//231 232//231 225//231
f 232//232 239//232 240//232 233//232
f 233//233 240//233 241//233 234//233
f 234//234 241//234 242//234 235//234
f 235//235 242//235 243//235 236//235
f 236//236 243//236 244//236 237//236
f 237//237 244//237 245//237 238//237
f 238//238 245//238 239//238 232//238
f 239//239 246//239 247//239 240//239
f 240//240 247//240 248//240 241//240
f 241//241 248//241 249//241 242//241
f 242//242 249//242 250//242 243//242
f 243//243 250//243 251//243 244//243
f 244//244 251//244 252//244 245//244
f 245//245 252//245 246//245 239//245
f 246//246 1//246 2//246 247//246
f 247//247 2//247 3//247 248//247
f 248//248 3//248 4//248 249//248
f 249//249 4//249 5//249 250//249
f 250//250 5//250 6//250 251//250
f 251//251 6//251 7//251 252//251
f 252//252 7//252 1//252 246//252
